<?xml version="1.0" encoding="UTF-8"?>
<svg xmlns="http://www.w3.org/2000/svg">
  <defs>
    <symbol id="mark" viewBox="0 0 48 48">
      <circle cx="24" cy="24" r="21" fill="none" stroke="currentColor" stroke-width="2.4"/>
      <path d="M9 29 Q16.5 13 24 24 Q31.5 35 39 19" fill="none" stroke="currentColor" stroke-width="3" stroke-linecap="round"/>
      <circle cx="9" cy="29" r="3.2" fill="currentColor"/>
      <circle cx="39" cy="19" r="3.2" fill="currentColor"/>
    </symbol>
    <symbol id="i-agente" viewBox="0 0 24 24"><g fill="none" stroke="currentColor" stroke-width="1.5" stroke-linecap="round" stroke-linejoin="round"><path d="M4 5h16v10H9l-4 4V5z"/><circle cx="9.5" cy="10" r="1" fill="currentColor" stroke="none"/><circle cx="14.5" cy="10" r="1" fill="currentColor" stroke="none"/></g></symbol>
    <symbol id="i-auto" viewBox="0 0 24 24"><g fill="none" stroke="currentColor" stroke-width="1.5" stroke-linecap="round" stroke-linejoin="round"><circle cx="5.5" cy="12" r="2.5"/><circle cx="18" cy="6" r="2.5"/><circle cx="18" cy="18" r="2.5"/><path d="M8 11 15.5 6.8M8 13 15.5 17.2"/></g></symbol>
    <symbol id="i-flujo" viewBox="0 0 24 24"><g fill="none" stroke="currentColor" stroke-width="1.5" stroke-linecap="round" stroke-linejoin="round"><path d="M3 15 Q8 4 12 12 Q15 18 21 9"/><circle cx="3" cy="15" r="1.6" fill="currentColor" stroke="none"/><circle cx="21" cy="9" r="1.6" fill="currentColor" stroke="none"/></g></symbol>
    <symbol id="i-integra" viewBox="0 0 24 24"><g fill="none" stroke="currentColor" stroke-width="1.5" stroke-linecap="round" stroke-linejoin="round"><rect x="3.5" y="3.5" width="11" height="11"/><rect x="9.5" y="9.5" width="11" height="11"/></g></symbol>
    <symbol id="i-modelo" viewBox="0 0 24 24"><g fill="none" stroke="currentColor" stroke-width="1.5" stroke-linecap="round" stroke-linejoin="round"><rect x="7" y="7" width="10" height="10"/><path d="M10 4v3M14 4v3M10 17v3M14 17v3M4 10h3M4 14h3M17 10h3M17 14h3"/></g></symbol>
    <symbol id="i-tiempo" viewBox="0 0 24 24"><g fill="none" stroke="currentColor" stroke-width="1.5" stroke-linecap="round" stroke-linejoin="round"><circle cx="12" cy="12" r="9"/><path d="M12 7v5l3.5 2.5"/></g></symbol>
    <symbol id="i-check" viewBox="0 0 24 24"><g fill="none" stroke="currentColor" stroke-width="1.8" stroke-linecap="round" stroke-linejoin="round"><path d="M4 12.5 9.5 18 20 6"/></g></symbol>
    <symbol id="i-cal" viewBox="0 0 24 24"><g fill="none" stroke="currentColor" stroke-width="1.5" stroke-linecap="round" stroke-linejoin="round"><rect x="3.5" y="5" width="17" height="15"/><path d="M3.5 9.5h17M8 3v4M16 3v4"/></g></symbol>
    <symbol id="i-chat" viewBox="0 0 24 24"><g fill="none" stroke="currentColor" stroke-width="1.5" stroke-linecap="round" stroke-linejoin="round"><path d="M4 5h16v11H10l-5 4V5z"/></g></symbol>
    <symbol id="i-mail" viewBox="0 0 24 24"><g fill="none" stroke="currentColor" stroke-width="1.5" stroke-linecap="round" stroke-linejoin="round"><rect x="3" y="5" width="18" height="14"/><path d="M3 6l9 7 9-7"/></g></symbol>
    <symbol id="i-arrow" viewBox="0 0 24 24"><g fill="none" stroke="currentColor" stroke-width="1.5" stroke-linecap="round" stroke-linejoin="round"><path d="M4 12h15M13 6l6 6-6 6"/></g></symbol>
    <symbol id="i-wa" viewBox="0 0 24 24"><path fill="currentColor" d="M17.472 14.382c-.297-.149-1.758-.867-2.03-.967-.273-.099-.471-.148-.67.15-.197.297-.767.966-.94 1.164-.173.199-.347.223-.644.075-.297-.15-1.255-.463-2.39-1.475-.883-.788-1.48-1.761-1.653-2.059-.173-.297-.018-.458.13-.606.134-.133.298-.347.446-.52.149-.174.198-.298.298-.497.099-.198.05-.371-.025-.52-.075-.149-.669-1.612-.916-2.207-.242-.579-.487-.5-.669-.51-.173-.008-.371-.01-.57-.01-.198 0-.52.074-.792.372-.272.297-1.04 1.016-1.04 2.479 0 1.462 1.065 2.875 1.213 3.074.149.198 2.096 3.2 5.077 4.487.709.306 1.262.489 1.694.625.712.227 1.36.195 1.871.118.571-.085 1.758-.719 2.006-1.413.248-.694.248-1.289.173-1.413-.074-.124-.272-.198-.57-.347m-5.421 7.403h-.004a9.87 9.87 0 01-5.031-1.378l-.361-.214-3.741.982.998-3.648-.235-.374a9.86 9.86 0 01-1.51-5.26c.001-5.45 4.436-9.884 9.888-9.884 2.64 0 5.122 1.03 6.988 2.898a9.825 9.825 0 012.893 6.994c-.003 5.45-4.437 9.884-9.885 9.884m8.413-18.297A11.815 11.815 0 0012.05 0C5.495 0 .16 5.335.157 11.892c0 2.096.547 4.142 1.588 5.945L.057 24l6.305-1.654a11.882 11.882 0 005.683 1.448h.005c6.554 0 11.89-5.335 11.893-11.893a11.821 11.821 0 00-3.48-8.413z"/></symbol>
  </defs>
</svg>
